<?xml version="1.0" standalone="no"?>
<!DOCTYPE svg PUBLIC "-//W3C//DTD SVG 20010904//EN"
 "http://www.w3.org/TR/2001/REC-SVG-20010904/DTD/svg10.dtd">
<svg version="1.0" xmlns="http://www.w3.org/2000/svg"
 width="260.000000pt" height="260.000000pt" viewBox="0 0 260.000000 260.000000"
 preserveAspectRatio="xMidYMid meet">
<metadata>
Created by potrace 1.11, written by Peter Selinger 2001-2013
</metadata>
<g transform="translate(0.000000,260.000000) scale(0.100000,-0.100000)"
fill="#000000" stroke="none">
<path d="M1179 2426 c-5 -5 -66 -17 -96 -19 -13 0 -23 -4 -23 -8 0 -5 -9 -6
-20 -4 -11 2 -20 0 -20 -5 0 -5 -7 -7 -15 -4 -8 4 -15 1 -15 -6 0 -7 -6 -10
-14 -7 -7 3 -25 -1 -39 -8 -14 -7 -28 -11 -31 -7 -3 3 -6 0 -6 -7 0 -7 -4 -10
-8 -7 -4 2 -29 -6 -55 -19 -26 -14 -47 -21 -47 -17 0 4 -7 -2 -15 -12 -8 -11
-15 -16 -15 -12 0 5 -7 3 -15 -4 -8 -7 -15 -9 -15 -4 0 5 -5 1 -11 -8 -5 -10
-15 -18 -21 -18 -7 0 -23 -10 -36 -22 -14 -13 -21 -16 -17 -8 5 8 -4 3 -20
-12 -79 -74 -109 -98 -116 -98 -5 0 -9 -8 -9 -17 0 -9 -3 -14 -6 -10 -4 3 -11
0 -18 -7 -6 -7 -27 -30 -46 -51 -19 -22 -26 -33 -15 -26 11 8 6 1 -11 -15 -17
-16 -29 -35 -26 -43 3 -8 0 -11 -7 -7 -6 4 -11 0 -11 -9 0 -9 -4 -13 -10 -10
-5 3 -10 -3 -10 -14 0 -11 -10 -27 -22 -35 -15 -11 -18 -16 -8 -16 11 -1 11
-3 -3 -11 -9 -6 -15 -14 -12 -19 3 -4 -2 -10 -10 -14 -8 -3 -12 -12 -9 -21 3
-8 1 -15 -5 -15 -6 0 -10 -3 -9 -7 0 -5 -2 -17 -6 -28 -12 -30 -18 -50 -15
-50 1 0 -3 -10 -10 -23 -12 -23 -20 -48 -26 -87 -2 -11 -4 -22 -6 -25 -1 -3
-3 -9 -4 -15 -2 -5 -4 -12 -5 -15 -10 -27 -20 -137 -20 -220 0 -25 1 -67 1
-95 0 -27 4 -63 9 -80 5 -16 11 -45 12 -62 1 -18 5 -33 8 -33 3 0 7 -12 8 -27
1 -16 6 -29 11 -31 5 -2 6 -12 3 -24 -3 -13 -1 -19 5 -15 6 4 10 -1 10 -11 0
-27 14 -62 25 -62 5 0 7 -4 4 -8 -3 -5 1 -20 9 -35 7 -14 11 -28 8 -31 -3 -3
2 -8 11 -12 9 -3 13 -10 10 -15 -3 -5 0 -9 6 -9 6 0 8 -5 5 -10 -3 -6 -1 -10
4 -10 6 0 11 -9 11 -21 0 -11 4 -18 9 -15 5 3 12 -2 15 -12 10 -28 33 -63 42
-65 5 -1 8 -5 7 -9 -2 -4 9 -16 24 -27 14 -12 23 -21 20 -21 -4 0 14 -20 39
-45 24 -25 49 -45 54 -45 6 0 10 -5 10 -11 0 -11 46 -53 52 -47 6 6 36 -27 31
-34 -2 -5 5 -8 16 -8 12 0 21 -4 21 -10 0 -5 7 -10 16 -10 9 0 12 -5 8 -12 -4
-6 -3 -8 3 -5 6 4 22 -2 35 -13 14 -11 28 -16 32 -13 3 3 6 1 6 -6 0 -7 4 -9
10 -6 5 3 10 1 10 -4 0 -6 5 -11 10 -11 6 0 30 -9 52 -20 23 -11 44 -18 46
-15 3 3 11 -3 18 -13 8 -9 14 -12 14 -5 0 9 8 8 28 -3 15 -7 34 -14 43 -14 9
0 19 -3 23 -7 7 -7 15 -9 76 -18 19 -2 45 -7 58 -10 12 -3 31 -7 42 -9 11 -3
22 0 25 5 4 5 12 6 18 2 16 -10 187 -10 187 0 0 5 4 5 10 2 5 -3 19 -1 30 5
11 6 20 7 20 1 0 -5 9 -7 20 -4 11 3 20 10 20 15 0 5 4 7 9 3 5 -3 13 -1 16 5
5 8 11 8 20 0 9 -8 15 -8 20 0 3 6 11 8 16 5 5 -4 9 -2 9 4 0 5 9 8 20 6 11
-2 20 1 20 7 0 6 3 8 7 5 3 -4 17 0 30 8 13 9 23 13 23 10 0 -3 15 2 33 12 17
9 35 18 40 19 4 1 10 3 15 4 4 1 10 2 15 1 4 0 7 4 7 10 0 5 5 7 10 4 6 -3 10
-2 10 3 0 5 8 12 18 15 26 9 76 40 85 55 5 7 12 10 17 7 5 -3 14 4 20 16 7 11
14 19 16 16 9 -8 164 138 164 155 0 5 4 6 10 3 6 -4 7 1 3 11 -4 12 -3 15 5
10 7 -4 12 -2 12 4 0 7 10 21 23 32 12 11 15 17 7 13 -8 -4 -5 2 7 13 12 11
19 22 16 26 -4 3 -1 6 5 6 7 0 12 5 12 11 0 6 11 25 23 42 25 34 53 97 49 110
-1 4 3 7 9 7 6 0 9 6 7 12 -3 7 1 19 8 26 7 7 11 19 8 27 -4 8 -2 15 4 15 9 0
20 38 25 83 1 9 5 17 10 17 5 0 7 6 4 14 -3 8 -3 17 1 20 3 4 7 19 8 34 5 57
14 115 18 120 3 2 1 13 -4 23 -7 12 -6 19 3 22 9 4 8 6 -2 6 -10 1 -11 4 -2
15 8 9 8 21 2 39 -7 18 -7 27 2 31 9 5 9 7 0 12 -8 4 -9 13 -3 29 5 12 6 26 2
29 -6 7 -10 24 -14 64 -1 12 -6 22 -11 22 -5 0 -4 6 2 14 9 10 8 16 -4 26 -8
7 -12 16 -10 21 7 10 -25 112 -38 120 -5 3 -8 9 -7 13 1 4 -1 17 -5 29 -4 12
-8 26 -9 30 0 4 -8 12 -16 17 -13 8 -13 10 -1 10 11 0 10 4 -5 16 -10 8 -12
13 -4 9 8 -4 6 1 -4 9 -11 9 -17 18 -14 22 4 3 0 13 -8 22 -37 43 -64 81 -64
91 0 6 -4 11 -10 11 -5 0 -10 6 -10 13 0 7 -34 48 -75 92 -41 43 -75 76 -75
72 0 -4 -8 1 -18 11 -11 9 -17 21 -14 26 3 5 0 6 -6 2 -7 -4 -24 5 -39 21 -16
15 -34 26 -42 25 -7 -2 -10 1 -7 6 5 9 -29 26 -47 23 -4 -1 -6 4 -5 10 2 6 -6
13 -17 15 -11 1 -21 7 -23 13 -2 5 -10 7 -18 4 -8 -3 -14 0 -14 6 0 6 -3 11
-7 10 -14 -2 -53 13 -53 20 0 4 -6 8 -12 9 -38 3 -54 8 -66 19 -7 7 -19 10
-27 7 -8 -4 -15 -1 -15 7 0 7 -3 10 -6 6 -3 -3 -22 0 -42 7 -21 7 -45 12 -54
10 -10 -1 -18 1 -18 6 0 4 -9 6 -20 3 -11 -3 -20 -1 -20 5 0 7 -10 8 -30 2
-16 -5 -30 -5 -30 -1 0 5 -43 8 -95 8 -52 -1 -95 -4 -95 -9 0 -10 -23 -6 -31
5 -3 4 -7 5 -10 3z m59 -228 c3 -23 4 -83 2 -88 -6 -15 -4 -90 2 -90 7 0 -2
-33 -13 -51 -2 -3 2 -13 10 -22 8 -10 9 -17 3 -17 -7 0 -8 -10 -2 -30 5 -16 5
-32 1 -34 -6 -4 -7 -71 -1 -101 1 -5 1 -12 0 -15 -6 -15 -4 -90 3 -90 5 0 5
-5 1 -12 -4 -6 -7 -27 -6 -45 l1 -34 -124 3 c-69 2 -125 6 -125 9 0 3 -23 5
-51 4 l-51 -2 6 46 c5 42 11 75 22 109 2 7 4 14 4 17 0 3 6 21 14 40 8 19 13
35 10 35 -2 0 5 18 16 40 11 22 17 40 13 40 -5 0 1 7 11 15 11 8 16 15 12 15
-5 0 -3 7 4 15 7 8 9 15 6 15 -4 0 0 7 8 16 9 8 16 22 16 30 0 8 5 14 10 14 6
0 10 4 10 10 0 10 20 37 53 72 9 10 17 20 17 23 0 3 1 4 3 3 2 -2 14 9 28 23
41 44 84 62 87 37z m172 2 c0 -5 4 -10 10 -10 12 0 45 -27 74 -59 12 -13 27
-30 34 -37 7 -8 10 -14 5 -14 -4 0 0 -5 10 -11 9 -5 17 -17 17 -24 0 -8 5 -15
11 -15 5 0 8 -4 5 -9 -4 -5 -3 -11 1 -13 12 -5 47 -75 72 -143 13 -33 27 -69
33 -80 5 -12 10 -27 11 -35 2 -8 6 -21 10 -27 5 -8 3 -13 -4 -13 -8 0 -8 -4 1
-16 8 -8 15 -25 16 -37 1 -12 3 -26 4 -32 8 -35 0 -42 -47 -40 -27 1 -52 -1
-58 -4 -5 -3 -65 -7 -132 -8 -98 -2 -121 0 -117 11 10 26 9 96 -1 96 -6 0 -6
3 1 8 13 9 13 64 -1 74 -7 5 -7 8 0 8 6 0 10 79 9 220 -1 209 0 220 17 220 11
0 19 -4 19 -10z m320 -80 c3 -3 22 -14 42 -23 20 -10 43 -23 50 -30 7 -7 29
-23 48 -37 19 -13 52 -40 72 -61 20 -20 40 -34 43 -31 3 3 5 0 5 -7 0 -17 26
-42 34 -33 4 3 4 -1 0 -11 -4 -12 -1 -17 11 -17 9 0 14 -4 11 -9 -4 -5 -2 -11
2 -13 11 -4 84 -118 75 -118 -3 0 1 -8 10 -18 15 -17 15 -19 -3 -35 -11 -9
-20 -14 -20 -12 0 3 -10 1 -21 -6 -12 -6 -31 -13 -43 -15 -51 -8 -82 -17 -95
-28 -12 -9 -13 -8 -6 4 7 12 6 13 -6 3 -25 -20 -95 -20 -96 0 -2 23 -14 92
-20 107 -3 8 -7 24 -9 35 -4 24 -12 58 -14 65 -1 3 -2 8 -1 13 0 4 -4 7 -9 7
-6 0 -8 11 -6 24 3 16 -1 27 -10 30 -9 3 -13 10 -10 15 7 11 -19 63 -27 55 -3
-3 -3 3 0 15 3 12 1 21 -6 21 -6 0 -10 3 -9 8 1 8 -13 45 -21 52 -12 10 -31
50 -31 65 0 12 4 13 28 2 15 -6 29 -14 32 -17z m-785 1 c3 -5 0 -13 -6 -17
-14 -8 -100 -191 -102 -216 -1 -10 -5 -18 -9 -18 -4 0 -8 -9 -8 -20 0 -11 -3
-20 -7 -20 -5 0 -9 -10 -9 -22 -1 -13 -4 -33 -8 -45 -11 -40 -18 -68 -21 -83
-14 -71 -18 -79 -34 -71 -9 5 -24 7 -33 6 -10 -2 -18 1 -18 6 0 5 -13 9 -29 9
-17 0 -32 4 -35 9 -4 5 -14 8 -24 6 -9 -1 -29 4 -44 12 -22 11 -28 11 -28 1
-1 -9 -4 -8 -13 3 -7 9 -18 14 -24 12 -7 -3 -13 3 -13 12 0 9 -4 13 -10 10 -5
-3 -10 -1 -10 4 0 6 5 11 10 11 6 0 13 8 17 18 3 9 15 29 25 45 11 15 17 27
14 27 -3 0 2 9 12 19 38 42 62 73 62 82 0 6 5 7 10 4 6 -3 10 1 10 9 0 9 6 16
14 16 8 0 18 5 22 12 5 7 3 8 -7 3 -12 -8 -12 -6 0 8 7 9 17 14 22 11 5 -3 9
3 9 12 0 10 3 15 6 12 3 -3 22 10 42 31 21 20 44 36 52 36 8 0 14 5 13 12 -2
7 6 10 17 8 11 -2 20 1 20 6 0 6 5 7 10 4 6 -3 10 1 10 9 0 8 6 13 13 10 7 -2
21 2 32 10 23 18 41 20 50 7z m-495 -570 c8 -1 25 -4 37 -5 13 0 23 -4 23 -7
0 -3 26 -12 58 -18 31 -7 64 -16 72 -19 8 -3 26 -6 40 -7 14 -1 26 -3 28 -4 1
0 5 -2 10 -3 15 -4 33 -28 27 -38 -9 -15 -12 -180 -3 -180 4 0 3 -11 -2 -25
-6 -17 -6 -25 1 -25 6 0 7 -5 3 -12 -10 -15 -11 -78 -2 -78 5 0 7 -18 5 -41
-2 -22 0 -42 5 -45 18 -11 -6 -26 -34 -20 -16 3 -27 2 -23 -3 3 -6 -7 -3 -23
4 -15 8 -39 17 -53 19 -13 2 -26 5 -29 6 -3 2 -8 2 -12 1 -5 0 -8 3 -8 9 0 5
-9 10 -19 10 -11 0 -23 5 -26 10 -3 6 -14 10 -24 10 -9 0 -27 9 -39 20 -12 11
-24 20 -27 20 -9 0 -57 50 -48 50 4 0 1 5 -7 10 -8 5 -10 10 -5 10 6 0 10 16
10 35 0 19 -3 35 -7 35 -8 0 -5 21 5 38 5 7 3 12 -3 12 -6 0 -8 5 -5 10 4 6 8
34 9 63 4 55 22 152 32 169 4 6 9 6 13 2 3 -5 13 -11 21 -13z m1746 1 c-3 -3
-1 -11 5 -18 5 -7 11 -28 12 -48 1 -20 5 -36 8 -36 3 0 6 -21 8 -47 1 -27 3
-57 5 -68 2 -11 -2 -23 -8 -27 -8 -6 -8 -8 0 -8 6 0 10 -12 8 -27 -8 -75 -16
-113 -25 -113 -5 0 -9 -4 -9 -10 0 -13 -37 -50 -50 -50 -5 0 -10 -5 -10 -11 0
-5 -5 -7 -10 -4 -6 3 -13 -1 -16 -9 -3 -9 -10 -13 -15 -10 -6 3 -17 0 -26 -8
-9 -7 -18 -12 -20 -10 -10 7 -23 0 -17 -9 5 -8 1 -8 -13 0 -14 7 -23 7 -31 -1
-6 -6 -21 -12 -34 -14 -13 -2 -42 -6 -65 -10 -37 -6 -41 -4 -38 12 2 11 4 19
5 19 12 0 17 404 5 409 -5 3 -1 11 10 18 22 13 28 15 95 23 25 4 46 10 48 15
2 4 11 6 21 3 10 -3 22 0 25 6 4 6 17 11 30 11 12 0 26 3 30 7 3 4 14 8 24 9
9 2 18 7 20 13 2 5 10 7 18 4 8 -3 12 -8 10 -11z m-1216 -98 c25 -3 91 -6 147
-6 102 -2 102 -2 112 -29 5 -15 7 -30 4 -33 -9 -9 -10 -86 -1 -86 4 0 4 -10 0
-22 -10 -27 -9 -39 1 -55 5 -7 4 -13 -2 -13 -6 0 -6 -11 -1 -29 4 -16 6 -32 2
-35 -8 -9 -9 -86 0 -86 4 0 4 -10 0 -22 -4 -13 -7 -38 -6 -56 l2 -33 -66 6
c-37 3 -88 7 -114 8 -27 1 -48 5 -48 9 0 4 -10 5 -22 3 -12 -3 -27 0 -35 6 -7
7 -13 7 -13 2 0 -5 -7 -10 -15 -10 -8 0 -15 4 -15 9 0 4 -7 8 -16 8 -11 0 -15
6 -11 20 3 11 2 20 -2 20 -4 0 -8 15 -9 33 -5 87 -8 383 -4 394 2 7 16 10 35
7 18 -2 52 -7 77 -10z m766 -175 c0 -98 -3 -179 -6 -179 -3 0 -5 -10 -6 -22
-3 -75 -9 -97 -26 -101 -10 -3 -18 -1 -18 5 0 5 -6 6 -12 1 -18 -11 -44 -14
-115 -16 -35 -1 -63 -4 -63 -7 0 -3 -28 -6 -63 -7 l-63 -2 -1 244 c0 167 4
245 11 248 6 2 56 5 111 6 111 3 207 9 212 15 3 2 12 2 21 -1 15 -4 17 -23 18
-184z m-1241 -325 c11 -2 21 -8 23 -14 2 -6 7 -8 12 -5 5 3 21 0 37 -6 35 -14
89 -29 127 -35 17 -2 32 -7 35 -12 3 -4 12 -7 19 -8 30 -2 29 -1 33 -51 1 -10
6 -24 12 -31 5 -7 7 -15 4 -18 -5 -5 28 -107 41 -129 4 -5 7 -15 8 -21 2 -14
36 -87 43 -94 9 -8 31 -49 31 -58 0 -4 -9 -8 -20 -9 -11 -1 -20 4 -20 13 0 8
-3 13 -7 12 -13 -4 -73 26 -73 36 0 4 -7 5 -16 2 -8 -3 -13 -2 -10 3 6 9 -22
26 -37 22 -5 -1 -6 3 -2 9 3 5 -2 13 -12 17 -10 4 -24 15 -31 25 -7 10 -19 15
-25 12 -7 -4 -9 -4 -5 0 9 10 -63 82 -77 78 -5 -2 -7 -1 -3 3 7 7 -4 24 -34
52 -9 9 -15 20 -12 25 3 4 1 8 -4 8 -5 0 -12 9 -15 21 -4 13 -10 18 -18 13 -7
-4 -10 -3 -5 4 3 6 2 13 -4 17 -5 3 -10 15 -10 26 0 10 -5 19 -11 19 -6 0 -9
7 -5 15 3 9 0 15 -8 15 -8 0 -13 12 -14 31 -1 25 2 29 16 24 9 -4 26 -9 37
-11z m1651 -9 c2 -14 -44 -113 -56 -120 -6 -4 -8 -10 -5 -15 3 -5 -3 -15 -13
-22 -11 -7 -20 -16 -20 -21 -2 -8 -15 -25 -44 -58 -10 -10 -18 -24 -18 -31 0
-6 -2 -9 -5 -6 -3 3 -27 -16 -53 -41 -66 -64 -104 -91 -115 -84 -6 3 -7 2 -4
-4 6 -10 -81 -60 -95 -55 -5 1 -8 -4 -8 -12 0 -9 -7 -12 -20 -9 -21 6 -28 23
-9 23 5 0 7 5 4 10 -3 6 -1 10 5 10 6 0 8 5 5 10 -3 6 -2 10 4 10 10 0 27 39
23 53 -1 4 5 10 13 13 8 3 12 10 9 15 -3 6 0 16 6 24 7 8 9 15 5 15 -4 0 -2 6
4 13 6 8 8 17 4 20 -3 4 -1 7 6 7 8 0 11 7 7 15 -3 8 0 15 6 15 6 0 8 3 5 7
-4 3 -2 12 4 20 6 7 9 13 6 13 -3 0 1 21 9 46 7 26 11 50 8 55 -3 5 -2 9 3 8
4 -1 10 0 13 1 3 1 16 4 30 5 14 1 33 5 42 9 9 4 22 8 30 10 7 1 18 4 23 8 6
3 29 9 53 13 23 4 42 11 42 15 0 5 9 7 20 5 11 -2 20 2 20 8 0 15 54 17 56 2z
m-1083 -110 c11 -5 17 -3 17 6 0 11 2 12 9 1 4 -7 12 -12 17 -11 32 6 124 -2
119 -11 -3 -5 -1 -10 5 -10 6 0 8 -5 3 -12 -10 -17 -10 -40 1 -55 5 -8 4 -13
-2 -13 -7 0 -8 -10 -2 -30 5 -16 5 -32 1 -34 -6 -4 -7 -71 -1 -101 1 -5 1 -12
0 -15 -6 -14 -4 -90 2 -90 4 0 4 -10 0 -22 -5 -13 -8 -30 -7 -38 2 -25 -6 -32
-22 -18 -9 7 -18 11 -21 9 -7 -7 -45 22 -89 67 -23 23 -60 80 -82 126 -22 47
-48 91 -57 100 -10 10 -11 16 -3 16 8 0 8 4 1 13 -5 6 -12 21 -14 32 -1 11 -7
23 -12 26 -5 4 -8 18 -8 33 0 14 -6 26 -12 26 -7 0 -6 3 2 8 15 10 129 7 155
-3z m470 1 c3 3 38 7 76 8 l71 3 -2 -29 c-1 -15 -5 -28 -9 -28 -6 0 -22 -58
-23 -85 -1 -5 -3 -12 -6 -15 -14 -14 -39 -73 -34 -81 3 -5 0 -9 -6 -9 -6 0 -8
-4 -5 -10 3 -5 1 -10 -4 -10 -6 0 -11 -7 -11 -15 0 -7 -6 -18 -14 -22 -8 -4
-15 -11 -15 -16 -2 -28 -76 -111 -108 -121 -13 -4 -23 -11 -23 -14 0 -14 -48
-11 -60 3 -7 8 -9 15 -4 15 5 0 9 93 9 207 0 192 1 208 18 207 9 -1 17 2 17 7
0 6 9 5 20 -1 11 -6 20 -7 20 -2 0 5 11 8 25 7 14 -2 28 1 31 6 4 6 10 6 18 0
7 -6 16 -8 19 -5z"/>
</g>
</svg>
